<svg width="195" height="84" viewBox="0 0 195 84" fill="none" xmlns="http://www.w3.org/2000/svg">
<g clip-path="url(#clip0)">
<path d="M2.58 48.06C2.58 43.98 3.5 40.32 5.34 37.08C7.18 33.8 9.68 31.24 12.84 29.4C16.04 27.56 19.58 26.64 23.46 26.64C28.02 26.64 32 27.74 35.4 29.94C38.8 32.14 41.28 35.26 42.84 39.3H36.3C35.14 36.78 33.46 34.84 31.26 33.48C29.1 32.12 26.5 31.44 23.46 31.44C20.54 31.44 17.92 32.12 15.6 33.48C13.28 34.84 11.46 36.78 10.14 39.3C8.82 41.78 8.16 44.7 8.16 48.06C8.16 51.38 8.82 54.3 10.14 56.82C11.46 59.3 13.28 61.22 15.6 62.58C17.92 63.94 20.54 64.62 23.46 64.62C26.5 64.62 29.1 63.96 31.26 62.64C33.46 61.28 35.14 59.34 36.3 56.82H42.84C41.28 60.82 38.8 63.92 35.4 66.12C32 68.28 28.02 69.36 23.46 69.36C19.58 69.36 16.04 68.46 12.84 66.66C9.68 64.82 7.18 62.28 5.34 59.04C3.5 55.8 2.58 52.14 2.58 48.06ZM65.3077 69.54C62.2277 69.54 59.4277 68.84 56.9077 67.44C54.4277 66.04 52.4677 64.06 51.0277 61.5C49.6277 58.9 48.9277 55.9 48.9277 52.5C48.9277 49.14 49.6477 46.18 51.0877 43.62C52.5677 41.02 54.5677 39.04 57.0877 37.68C59.6077 36.28 62.4277 35.58 65.5477 35.58C68.6677 35.58 71.4877 36.28 74.0077 37.68C76.5277 39.04 78.5077 41 79.9477 43.56C81.4277 46.12 82.1677 49.1 82.1677 52.5C82.1677 55.9 81.4077 58.9 79.8877 61.5C78.4077 64.06 76.3877 66.04 73.8277 67.44C71.2677 68.84 68.4277 69.54 65.3077 69.54ZM65.3077 64.74C67.2677 64.74 69.1077 64.28 70.8277 63.36C72.5477 62.44 73.9277 61.06 74.9677 59.22C76.0477 57.38 76.5877 55.14 76.5877 52.5C76.5877 49.86 76.0677 47.62 75.0277 45.78C73.9877 43.94 72.6277 42.58 70.9477 41.7C69.2677 40.78 67.4477 40.32 65.4877 40.32C63.4877 40.32 61.6477 40.78 59.9677 41.7C58.3277 42.58 57.0077 43.94 56.0077 45.78C55.0077 47.62 54.5077 49.86 54.5077 52.5C54.5077 55.18 54.9877 57.44 55.9477 59.28C56.9477 61.12 58.2677 62.5 59.9077 63.42C61.5477 64.3 63.3477 64.74 65.3077 64.74ZM87.3066 52.44C87.3066 49.08 87.9866 46.14 89.3466 43.62C90.7066 41.06 92.5666 39.08 94.9266 37.68C97.3266 36.28 100.007 35.58 102.967 35.58C105.527 35.58 107.907 36.18 110.107 37.38C112.307 38.54 113.987 40.08 115.147 42V24.6H120.667V69H115.147V62.82C114.067 64.78 112.467 66.4 110.347 67.68C108.227 68.92 105.747 69.54 102.907 69.54C99.9866 69.54 97.3266 68.82 94.9266 67.38C92.5666 65.94 90.7066 63.92 89.3466 61.32C87.9866 58.72 87.3066 55.76 87.3066 52.44ZM115.147 52.5C115.147 50.02 114.647 47.86 113.647 46.02C112.647 44.18 111.287 42.78 109.567 41.82C107.887 40.82 106.027 40.32 103.987 40.32C101.947 40.32 100.087 40.8 98.4066 41.76C96.7266 42.72 95.3866 44.12 94.3866 45.96C93.3866 47.8 92.8866 49.96 92.8866 52.44C92.8866 54.96 93.3866 57.16 94.3866 59.04C95.3866 60.88 96.7266 62.3 98.4066 63.3C100.087 64.26 101.947 64.74 103.987 64.74C106.027 64.74 107.887 64.26 109.567 63.3C111.287 62.3 112.647 60.88 113.647 59.04C114.647 57.16 115.147 54.98 115.147 52.5ZM183.342 41.46C184.302 39.58 185.662 38.12 187.422 37.08C189.222 36.04 191.402 35.52 193.962 35.52V41.16H192.522C186.402 41.16 183.342 44.48 183.342 51.12V69H177.882V36.12H183.342V41.46Z" fill="white"/>
<path d="M132.5 38.5H163.5" stroke="#FF4900" stroke-width="8"/>
<path d="M132.5 52.5H163.5" stroke="#FF4900" stroke-width="8"/>
<path d="M132.5 66.5H163.5" stroke="#FF4900" stroke-width="8"/>
</g>
<defs>
<clipPath id="clip0">
<rect width="195" height="84" fill="white"/>
</clipPath>
</defs>
</svg>
