<svg width="262" height="213" viewBox="0 0 262 213" fill="none" xmlns="http://www.w3.org/2000/svg">
<path d="M3.32422 70.5044V34.8114C3.32422 31.9177 5.86894 29.5719 9.00801 29.5719H24.7061C27.8452 29.5719 30.3899 31.9177 30.3899 34.8114V70.5044C30.3899 73.3981 27.8452 75.7439 24.7061 75.7439H9.00801C5.86894 75.7439 3.32422 73.3981 3.32422 70.5044Z" fill="#191919"/>
<path d="M255.907 70.127H9.1165C6.41262 70.127 4.2207 72.1599 4.2207 74.6677V207.731C4.2207 210.239 6.41262 212.272 9.1165 212.272H255.907C258.611 212.272 260.803 210.239 260.803 207.731V74.6677C260.803 72.1599 258.611 70.127 255.907 70.127Z" fill="#191919"/>
<path d="M261.998 54.1237H3.02148V79.0739H261.998V54.1237Z" fill="#191919"/>
<path d="M55.2708 77.6792H30.4922L43.5335 55.5181H68.3121L55.2708 77.6792Z" fill="white"/>
<path d="M118.72 77.6794H93.9414L106.983 55.5184H131.761L118.72 77.6794Z" fill="white"/>
<path d="M182.171 77.6794H157.393L170.434 55.5184H195.213L182.171 77.6794Z" fill="white"/>
<path d="M245.619 77.6794H220.84L233.881 55.5184H258.66L245.619 77.6794Z" fill="white"/>
<path d="M-0.00011965 29.4806L256.994 0L260.336 24.7592L3.34211 54.2398L-0.00011965 29.4806Z" fill="#191919"/>
<path d="M238.804 26.5717L256.875 14.3696L234.447 3.24411L216.376 15.4462L238.804 26.5717Z" fill="white"/>
<path d="M175.843 33.7945L193.914 21.5924L171.486 10.4669L153.415 22.669L175.843 33.7945Z" fill="white"/>
<path d="M112.878 41.0172L130.949 28.8152L108.521 17.6897L90.4501 29.8917L112.878 41.0172Z" fill="white"/>
<path d="M49.9134 48.2399L67.9844 36.0378L45.5562 24.9124L27.4852 37.1144L49.9134 48.2399Z" fill="white"/>
<path fill-rule="evenodd" clip-rule="evenodd" d="M22.0915 38.8884C22.2687 40.2017 21.8728 41.5261 20.9908 42.5703C20.1088 43.6146 18.8129 44.293 17.3882 44.4564C15.9635 44.6199 14.5268 44.2549 13.3941 43.4418C12.2613 42.6287 11.5254 41.4341 11.3481 40.1208C11.2603 39.4705 11.3123 38.8106 11.5012 38.1789C11.69 37.5471 12.012 36.9558 12.4487 36.4388C12.8855 35.9218 13.4284 35.4891 14.0465 35.1655C14.6647 34.8419 15.3459 34.6336 16.0513 34.5527C16.7567 34.4718 17.4725 34.5198 18.1579 34.6938C18.8432 34.8679 19.4846 35.1648 20.0455 35.5674C21.1782 36.3805 21.9142 37.5751 22.0915 38.8884Z" fill="white" stroke="white" stroke-width="4"/>
<path d="M2.98242 79.1058H262.001" stroke="#CCCCCC" stroke-width="0.691591"/>
</svg>
