<svg xmlns="http://www.w3.org/2000/svg" width="512.195" height="509.799" viewBox="0 0 512.195 509.799">
  <g id="circle1" transform="translate(0 -1.198)">
    <g id="Group_8478" data-name="Group 8478">
      <g id="Group_8477" data-name="Group 8477">
        <path id="Path_8198" data-name="Path 8198" d="M46.615,402.03a254.1,254.1,0,0,0,21.456,26.528L91.543,406.83a222.59,222.59,0,0,1-18.768-23.184Z" fill="#ff4900"/>
        <path id="Path_8199" data-name="Path 8199" d="M32.007,254.83a224.3,224.3,0,0,1,194.1-221.9L221.911,1.2C81.787,20.041-16.53,148.91,2.314,289.033A256.009,256.009,0,0,0,28.887,372.99l28.368-14.784A221.487,221.487,0,0,1,32.007,254.83Z" fill="#ff4900"/>
        <path id="Path_8200" data-name="Path 8200" d="M92.807,452.03A260.454,260.454,0,0,0,120.439,472l16.976-27.2a224.991,224.991,0,0,1-24.208-17.5Z" fill="#ff4900"/>
        <path id="Path_8201" data-name="Path 8201" d="M361.761,21.742A256,256,0,0,0,290.1,1.2l-4.192,31.728c122.555,16.88,208.221,129.915,191.341,252.469A223.472,223.472,0,0,1,163.719,458.974L150.5,488.126c128.788,58.337,280.484,1.225,338.821-127.563S490.549,80.079,361.761,21.742Z" fill="#ff4900"/>
      </g>
    </g>
  </g>
</svg>
