<?xml version="1.0" encoding="utf-8"?>
<!-- Generator: Adobe Illustrator 20.1.0, SVG Export Plug-In . SVG Version: 6.00 Build 0)  -->
<svg version="1.1" id="Layer_1" xmlns="http://www.w3.org/2000/svg" xmlns:xlink="http://www.w3.org/1999/xlink" x="36px" y="36px"
	 viewBox="0 0 300 239" style="enable-background:new 0 0 300 239;" xml:space="preserve">
<style type="text/css">
	.st0{fill:none;stroke:#fff;stroke-width:2;}
</style>
<title>logo</title>
<desc>Created with Sketch.</desc>
<g>
	<polygon id="Shape" class="st0" points="1,1 238,1 238,238 1,238 	"/>
	<path id="Shape_1_" d="M160.2,186.2c4.8,7.8,11,13.5,22,13.5c9.2,0,15.1-4.6,15.1-11c0-7.6-6.1-10.3-16.2-14.8l-5.6-2.4
		c-16.1-6.8-26.7-15.4-26.7-33.6c0-16.7,12.7-29.4,32.6-29.4c14.2,0,24.3,4.9,31.7,17.8l-17.3,11.1c-3.8-6.8-7.9-9.5-14.3-9.5
		c-6.5,0-10.7,4.1-10.7,9.5c0,6.7,4.1,9.4,13.7,13.5l5.6,2.4c18.9,8.1,29.6,16.4,29.6,35c0,20.1-15.8,31-36.9,31
		c-20.7,0-34-9.9-40.6-22.8L160.2,186.2L160.2,186.2z M240.5,186.2c4.8,7.8,11,13.5,22,13.5c9.2,0,15.1-4.6,15.1-11
		c0-7.6-6.1-10.3-16.2-14.8l-5.6-2.4c-16.1-6.8-26.7-15.4-26.7-33.6c0-16.7,12.7-29.4,32.6-29.4c14.2,0,24.3,4.9,31.7,17.8
		l-17.3,11.1c-3.8-6.8-7.9-9.5-14.3-9.5c-6.5,0-10.7,4.1-10.7,9.5c0,6.7,4.1,9.4,13.7,13.5l5.6,2.4c18.9,8.1,29.6,16.4,29.6,35
		c0,20.1-15.8,31-36.9,31c-20.7,0-34-9.9-40.6-22.8L240.5,186.2L240.5,186.2z M81.5,188.1c3.5,6.2,6.7,11.5,14.3,11.5
		c7.3,0,11.9-2.9,11.9-14v-75.7H130v76c0,23.1-13.5,33.6-33.3,33.6c-17.8,0-28.2-9.2-33.4-20.3L81.5,188.1L81.5,188.1z"/>
</g>
</svg>
